<svg id="visual" viewBox="0 0 1000 25" width="1000" height="25" xmlns="http://www.w3.org/2000/svg" xmlns:xlink="http://www.w3.org/1999/xlink" version="1.1"><path d="M0 19L23.8 19.5C47.7 20 95.3 21 143 21.2C190.7 21.3 238.3 20.7 286 20.3C333.7 20 381.3 20 428.8 20.2C476.3 20.3 523.7 20.7 571.2 19.8C618.7 19 666.3 17 714 17C761.7 17 809.3 19 857 19.5C904.7 20 952.3 19 976.2 18.5L1000 18L1000 0L976.2 0C952.3 0 904.7 0 857 0C809.3 0 761.7 0 714 0C666.3 0 618.7 0 571.2 0C523.7 0 476.3 0 428.8 0C381.3 0 333.7 0 286 0C238.3 0 190.7 0 143 0C95.3 0 47.7 0 23.8 0L0 0Z" fill="#aeaeae"></path><path d="M0 12L23.8 12.5C47.7 13 95.3 14 143 15C190.7 16 238.3 17 286 16.2C333.7 15.3 381.3 12.7 428.8 12.3C476.3 12 523.7 14 571.2 15.2C618.7 16.3 666.3 16.7 714 16.7C761.7 16.7 809.3 16.3 857 16.3C904.7 16.3 952.3 16.7 976.2 16.8L1000 17L1000 0L976.2 0C952.3 0 904.7 0 857 0C809.3 0 761.7 0 714 0C666.3 0 618.7 0 571.2 0C523.7 0 476.3 0 428.8 0C381.3 0 333.7 0 286 0C238.3 0 190.7 0 143 0C95.3 0 47.7 0 23.8 0L0 0Z" fill="#878787"></path><path d="M0 13L23.8 12.5C47.7 12 95.3 11 143 10.5C190.7 10 238.3 10 286 9.3C333.7 8.7 381.3 7.3 428.8 7.2C476.3 7 523.7 8 571.2 8.2C618.7 8.3 666.3 7.7 714 8.2C761.7 8.7 809.3 10.3 857 10.5C904.7 10.7 952.3 9.3 976.2 8.7L1000 8L1000 0L976.2 0C952.3 0 904.7 0 857 0C809.3 0 761.7 0 714 0C666.3 0 618.7 0 571.2 0C523.7 0 476.3 0 428.8 0C381.3 0 333.7 0 286 0C238.3 0 190.7 0 143 0C95.3 0 47.7 0 23.8 0L0 0Z" fill="#626262"></path><path d="M0 7L23.8 6.7C47.7 6.3 95.3 5.7 143 5.8C190.7 6 238.3 7 286 7.5C333.7 8 381.3 8 428.8 7.7C476.3 7.3 523.7 6.7 571.2 6C618.7 5.3 666.3 4.7 714 5.2C761.7 5.7 809.3 7.3 857 7.8C904.7 8.3 952.3 7.7 976.2 7.3L1000 7L1000 0L976.2 0C952.3 0 904.7 0 857 0C809.3 0 761.7 0 714 0C666.3 0 618.7 0 571.2 0C523.7 0 476.3 0 428.8 0C381.3 0 333.7 0 286 0C238.3 0 190.7 0 143 0C95.3 0 47.7 0 23.8 0L0 0Z" fill="#404040"></path><path d="M0 2L23.8 2.5C47.7 3 95.3 4 143 4.7C190.7 5.3 238.3 5.7 286 5.8C333.7 6 381.3 6 428.8 6C476.3 6 523.7 6 571.2 5.2C618.7 4.3 666.3 2.7 714 2.5C761.7 2.3 809.3 3.7 857 4.2C904.7 4.7 952.3 4.3 976.2 4.2L1000 4L1000 0L976.2 0C952.3 0 904.7 0 857 0C809.3 0 761.7 0 714 0C666.3 0 618.7 0 571.2 0C523.7 0 476.3 0 428.8 0C381.3 0 333.7 0 286 0C238.3 0 190.7 0 143 0C95.3 0 47.7 0 23.8 0L0 0Z" fill="#202020"></path></svg>