<svg id="visual" viewBox="0 0 960 540" width="960" height="540" xmlns="http://www.w3.org/2000/svg" xmlns:xlink="http://www.w3.org/1999/xlink" version="1.1"><path d="M0 210L137 152L274 157L411 151L549 177L686 135L823 131L960 172L960 541L823 541L686 541L549 541L411 541L274 541L137 541L0 541Z" fill="#202020"></path><path d="M0 280L137 294L274 302L411 216L549 286L686 186L823 284L960 273L960 541L823 541L686 541L549 541L411 541L274 541L137 541L0 541Z" fill="#515151"></path><path d="M0 316L137 364L274 293L411 318L549 283L686 367L823 332L960 260L960 541L823 541L686 541L549 541L411 541L274 541L137 541L0 541Z" fill="#878787"></path><path d="M0 363L137 384L274 388L411 370L549 428L686 338L823 367L960 345L960 541L823 541L686 541L549 541L411 541L274 541L137 541L0 541Z" fill="#c1c1c1"></path><path d="M0 470L137 434L274 493L411 447L549 493L686 411L823 451L960 470L960 541L823 541L686 541L549 541L411 541L274 541L137 541L0 541Z" fill="#ffffff"></path></svg>