<svg id="visual" viewBox="0 0 960 540" width="960" height="540" xmlns="http://www.w3.org/2000/svg" xmlns:xlink="http://www.w3.org/1999/xlink" version="1.1"><path d="M0 82L107 164L213 109L320 126L427 177L533 86L640 73L747 84L853 138L960 138L960 541L853 541L747 541L640 541L533 541L427 541L320 541L213 541L107 541L0 541Z" fill="#202020"></path><path d="M0 229L107 182L213 243L320 125L427 247L533 245L640 176L747 195L853 185L960 243L960 541L853 541L747 541L640 541L533 541L427 541L320 541L213 541L107 541L0 541Z" fill="#464646"></path><path d="M0 196L107 204L213 309L320 245L427 267L533 222L640 264L747 207L853 313L960 256L960 541L853 541L747 541L640 541L533 541L427 541L320 541L213 541L107 541L0 541Z" fill="#717171"></path><path d="M0 302L107 374L213 315L320 294L427 376L533 288L640 337L747 306L853 300L960 272L960 541L853 541L747 541L640 541L533 541L427 541L320 541L213 541L107 541L0 541Z" fill="#9e9e9e"></path><path d="M0 349L107 377L213 384L320 395L427 406L533 378L640 376L747 443L853 396L960 409L960 541L853 541L747 541L640 541L533 541L427 541L320 541L213 541L107 541L0 541Z" fill="#cdcdcd"></path><path d="M0 449L107 461L213 496L320 498L427 494L533 434L640 456L747 464L853 417L960 440L960 541L853 541L747 541L640 541L533 541L427 541L320 541L213 541L107 541L0 541Z" fill="#ffffff"></path></svg>