<svg id="visual" viewBox="0 0 960 540" width="960" height="540" xmlns="http://www.w3.org/2000/svg" xmlns:xlink="http://www.w3.org/1999/xlink" version="1.1"><g stroke-width="1" stroke-linejoin="bevel"><path d="M514.6 263L464.4 371L576.6 372Z" fill="#5b5b5b" stroke="#5b5b5b"></path><path d="M576.6 372L627.7 304L514.6 263Z" fill="#333333" stroke="#333333"></path><path d="M514.6 263L370.4 292L464.4 371Z" fill="#b5b5b5" stroke="#b5b5b5"></path><path d="M575.6 104L419.4 170L514.6 263Z" fill="#9e9e9e" stroke="#9e9e9e"></path><path d="M514.6 263L419.4 170L370.4 292Z" fill="#9e9e9e" stroke="#9e9e9e"></path><path d="M402.4 540L552.6 540L464.4 371Z" fill="#9e9e9e" stroke="#9e9e9e"></path><path d="M464.4 371L552.6 540L576.6 372Z" fill="#878787" stroke="#878787"></path><path d="M576.6 372L718.7 418L627.7 304Z" fill="#b5b5b5" stroke="#b5b5b5"></path><path d="M552.6 540L718.7 418L576.6 372Z" fill="#ffffff" stroke="#ffffff"></path><path d="M825.9 323L651.7 154L627.7 304Z" fill="#878787" stroke="#878787"></path><path d="M627.7 304L651.7 154L514.6 263Z" fill="#9e9e9e" stroke="#9e9e9e"></path><path d="M651.7 154L575.6 104L514.6 263Z" fill="#464646" stroke="#464646"></path><path d="M265.3 458L402.4 540L464.4 371Z" fill="#333333" stroke="#333333"></path><path d="M419.4 170L273.3 291L370.4 292Z" fill="#e6e6e6" stroke="#e6e6e6"></path><path d="M370.4 292L265.3 458L464.4 371Z" fill="#ffffff" stroke="#ffffff"></path><path d="M273.3 291L265.3 458L370.4 292Z" fill="#5b5b5b" stroke="#5b5b5b"></path><path d="M552.6 540L732.7 540L718.7 418Z" fill="#e6e6e6" stroke="#e6e6e6"></path><path d="M847.9 353L825.9 323L718.7 418Z" fill="#717171" stroke="#717171"></path><path d="M718.7 418L825.9 323L627.7 304Z" fill="#9e9e9e" stroke="#9e9e9e"></path><path d="M802.9 540L847.9 353L718.7 418Z" fill="#464646" stroke="#464646"></path><path d="M635.7 0L575.6 104L651.7 154Z" fill="#e6e6e6" stroke="#e6e6e6"></path><path d="M635.7 0L581.6 0L575.6 104Z" fill="#ffffff" stroke="#ffffff"></path><path d="M575.6 104L405.4 0L419.4 170Z" fill="#9e9e9e" stroke="#9e9e9e"></path><path d="M419.4 170L249.3 119L273.3 291Z" fill="#e6e6e6" stroke="#e6e6e6"></path><path d="M325.3 0L249.3 119L419.4 170Z" fill="#202020" stroke="#202020"></path><path d="M273.3 291L186.1 420L265.3 458Z" fill="#b5b5b5" stroke="#b5b5b5"></path><path d="M168.1 247L186.1 420L273.3 291Z" fill="#202020" stroke="#202020"></path><path d="M265.3 458L231.3 540L402.4 540Z" fill="#e6e6e6" stroke="#e6e6e6"></path><path d="M732.7 540L802.9 540L718.7 418Z" fill="#ffffff" stroke="#ffffff"></path><path d="M810.9 107L635.7 0L651.7 154Z" fill="#5b5b5b" stroke="#5b5b5b"></path><path d="M810.9 107L651.7 154L825.9 323Z" fill="#878787" stroke="#878787"></path><path d="M581.6 0L405.4 0L575.6 104Z" fill="#464646" stroke="#464646"></path><path d="M186.1 420L231.3 540L265.3 458Z" fill="#ffffff" stroke="#ffffff"></path><path d="M249.3 119L168.1 247L273.3 291Z" fill="#717171" stroke="#717171"></path><path d="M960 278L810.9 107L825.9 323Z" fill="#5b5b5b" stroke="#5b5b5b"></path><path d="M405.4 0L325.3 0L419.4 170Z" fill="#cdcdcd" stroke="#cdcdcd"></path><path d="M169.1 0L184.1 110L249.3 119Z" fill="#b5b5b5" stroke="#b5b5b5"></path><path d="M249.3 119L184.1 110L168.1 247Z" fill="#878787" stroke="#878787"></path><path d="M960 394L960 278L847.9 353Z" fill="#9e9e9e" stroke="#9e9e9e"></path><path d="M847.9 353L960 278L825.9 323Z" fill="#333333" stroke="#333333"></path><path d="M802.9 540L960 394L847.9 353Z" fill="#cdcdcd" stroke="#cdcdcd"></path><path d="M0 460L104.1 540L186.1 420Z" fill="#b5b5b5" stroke="#b5b5b5"></path><path d="M186.1 420L104.1 540L231.3 540Z" fill="#ffffff" stroke="#ffffff"></path><path d="M0 280L186.1 420L168.1 247Z" fill="#ffffff" stroke="#ffffff"></path><path d="M325.3 0L169.1 0L249.3 119Z" fill="#333333" stroke="#333333"></path><path d="M0 117L0 280L168.1 247Z" fill="#333333" stroke="#333333"></path><path d="M802.9 540L960 540L960 394Z" fill="#717171" stroke="#717171"></path><path d="M960 80L876.9 0L810.9 107Z" fill="#9e9e9e" stroke="#9e9e9e"></path><path d="M810.9 107L876.9 0L635.7 0Z" fill="#9e9e9e" stroke="#9e9e9e"></path><path d="M960 278L960 80L810.9 107Z" fill="#202020" stroke="#202020"></path><path d="M0 117L168.1 247L184.1 110Z" fill="#b5b5b5" stroke="#b5b5b5"></path><path d="M0 280L0 460L186.1 420Z" fill="#202020" stroke="#202020"></path><path d="M960 80L960 0L876.9 0Z" fill="#9e9e9e" stroke="#9e9e9e"></path><path d="M0 460L0 540L104.1 540Z" fill="#333333" stroke="#333333"></path><path d="M169.1 0L0 117L184.1 110Z" fill="#464646" stroke="#464646"></path><path d="M169.1 0L0 0L0 117Z" fill="#b5b5b5" stroke="#b5b5b5"></path></g></svg>