<svg id="visual" viewBox="0 0 1000 40" width="1000" height="40" xmlns="http://www.w3.org/2000/svg" xmlns:xlink="http://www.w3.org/1999/xlink" version="1.1"><path d="M0 17L67 17L67 17L133 17L133 25L200 25L200 14L267 14L267 12L333 12L333 26L400 26L400 35L467 35L467 15L533 15L533 30L600 30L600 25L667 25L667 33L733 33L733 19L800 19L800 19L867 19L867 33L933 33L933 12L1000 12L1000 22L1000 0L1000 0L933 0L933 0L867 0L867 0L800 0L800 0L733 0L733 0L667 0L667 0L600 0L600 0L533 0L533 0L467 0L467 0L400 0L400 0L333 0L333 0L267 0L267 0L200 0L200 0L133 0L133 0L67 0L67 0L0 0Z" fill="#3e3e3e"></path><path d="M0 24L67 24L67 15L133 15L133 26L200 26L200 15L267 15L267 20L333 20L333 28L400 28L400 11L467 11L467 23L533 23L533 20L600 20L600 25L667 25L667 27L733 27L733 22L800 22L800 9L867 9L867 8L933 8L933 11L1000 11L1000 18L1000 0L1000 0L933 0L933 0L867 0L867 0L800 0L800 0L733 0L733 0L667 0L667 0L600 0L600 0L533 0L533 0L467 0L467 0L400 0L400 0L333 0L333 0L267 0L267 0L200 0L200 0L133 0L133 0L67 0L67 0L0 0Z" fill="#2f2f2f"></path><path d="M0 13L67 13L67 5L133 5L133 3L200 3L200 4L267 4L267 10L333 10L333 16L400 16L400 9L467 9L467 12L533 12L533 15L600 15L600 8L667 8L667 0L733 0L733 0L800 0L800 8L867 8L867 11L933 11L933 8L1000 8L1000 0L1000 0L1000 0L933 0L933 0L867 0L867 0L800 0L800 0L733 0L733 0L667 0L667 0L600 0L600 0L533 0L533 0L467 0L467 0L400 0L400 0L333 0L333 0L267 0L267 0L200 0L200 0L133 0L133 0L67 0L67 0L0 0Z" fill="#202020"></path></svg>