<svg id="visual" viewBox="0 0 1000 25" width="1000" height="25" xmlns="http://www.w3.org/2000/svg" xmlns:xlink="http://www.w3.org/1999/xlink" version="1.1"><path d="M0 18L8.8 18C17.7 18 35.3 18 52.8 18.3C70.3 18.7 87.7 19.3 105.2 19.2C122.7 19 140.3 18 158 17.7C175.7 17.3 193.3 17.7 210.8 18C228.3 18.3 245.7 18.7 263.2 18.8C280.7 19 298.3 19 315.8 18.3C333.3 17.7 350.7 16.3 368.2 15.7C385.7 15 403.3 15 421 15.7C438.7 16.3 456.3 17.7 473.8 18.7C491.3 19.7 508.7 20.3 526.2 19.3C543.7 18.3 561.3 15.7 579 15.3C596.7 15 614.3 17 631.8 17.2C649.3 17.3 666.7 15.7 684.2 14.8C701.7 14 719.3 14 736.8 14.3C754.3 14.7 771.7 15.3 789.2 16.5C806.7 17.7 824.3 19.3 842 19.2C859.7 19 877.3 17 894.8 16.7C912.3 16.3 929.7 17.7 947.2 18C964.7 18.3 982.3 17.7 991.2 17.3L1000 17L1000 0L991.2 0C982.3 0 964.7 0 947.2 0C929.7 0 912.3 0 894.8 0C877.3 0 859.7 0 842 0C824.3 0 806.7 0 789.2 0C771.7 0 754.3 0 736.8 0C719.3 0 701.7 0 684.2 0C666.7 0 649.3 0 631.8 0C614.3 0 596.7 0 579 0C561.3 0 543.7 0 526.2 0C508.7 0 491.3 0 473.8 0C456.3 0 438.7 0 421 0C403.3 0 385.7 0 368.2 0C350.7 0 333.3 0 315.8 0C298.3 0 280.7 0 263.2 0C245.7 0 228.3 0 210.8 0C193.3 0 175.7 0 158 0C140.3 0 122.7 0 105.2 0C87.7 0 70.3 0 52.8 0C35.3 0 17.7 0 8.8 0L0 0Z" fill="#202020"></path><path d="M0 11L8.8 11C17.7 11 35.3 11 52.8 11.3C70.3 11.7 87.7 12.3 105.2 12.3C122.7 12.3 140.3 11.7 158 11.3C175.7 11 193.3 11 210.8 11C228.3 11 245.7 11 263.2 11.7C280.7 12.3 298.3 13.7 315.8 14C333.3 14.3 350.7 13.7 368.2 13.8C385.7 14 403.3 15 421 14.7C438.7 14.3 456.3 12.7 473.8 12.7C491.3 12.7 508.7 14.3 526.2 14.5C543.7 14.7 561.3 13.3 579 13C596.7 12.7 614.3 13.3 631.8 13.3C649.3 13.3 666.7 12.7 684.2 12.3C701.7 12 719.3 12 736.8 12.3C754.3 12.7 771.7 13.3 789.2 13.5C806.7 13.7 824.3 13.3 842 13.3C859.7 13.3 877.3 13.7 894.8 13.8C912.3 14 929.7 14 947.2 14.5C964.7 15 982.3 16 991.2 16.5L1000 17L1000 0L991.2 0C982.3 0 964.7 0 947.2 0C929.7 0 912.3 0 894.8 0C877.3 0 859.7 0 842 0C824.3 0 806.7 0 789.2 0C771.7 0 754.3 0 736.8 0C719.3 0 701.7 0 684.2 0C666.7 0 649.3 0 631.8 0C614.3 0 596.7 0 579 0C561.3 0 543.7 0 526.2 0C508.7 0 491.3 0 473.8 0C456.3 0 438.7 0 421 0C403.3 0 385.7 0 368.2 0C350.7 0 333.3 0 315.8 0C298.3 0 280.7 0 263.2 0C245.7 0 228.3 0 210.8 0C193.3 0 175.7 0 158 0C140.3 0 122.7 0 105.2 0C87.7 0 70.3 0 52.8 0C35.3 0 17.7 0 8.8 0L0 0Z" fill="#484848"></path><path d="M0 11L8.8 10.7C17.7 10.3 35.3 9.7 52.8 10C70.3 10.3 87.7 11.7 105.2 11.7C122.7 11.7 140.3 10.3 158 10.3C175.7 10.3 193.3 11.7 210.8 12.3C228.3 13 245.7 13 263.2 12.8C280.7 12.7 298.3 12.3 315.8 11.8C333.3 11.3 350.7 10.7 368.2 10.2C385.7 9.7 403.3 9.3 421 9C438.7 8.7 456.3 8.3 473.8 8.8C491.3 9.3 508.7 10.7 526.2 11.2C543.7 11.7 561.3 11.3 579 11.5C596.7 11.7 614.3 12.3 631.8 12.2C649.3 12 666.7 11 684.2 10C701.7 9 719.3 8 736.8 8.2C754.3 8.3 771.7 9.7 789.2 9.8C806.7 10 824.3 9 842 9.3C859.7 9.7 877.3 11.3 894.8 11.5C912.3 11.7 929.7 10.3 947.2 10.3C964.7 10.3 982.3 11.7 991.2 12.3L1000 13L1000 0L991.2 0C982.3 0 964.7 0 947.2 0C929.7 0 912.3 0 894.8 0C877.3 0 859.7 0 842 0C824.3 0 806.7 0 789.2 0C771.7 0 754.3 0 736.8 0C719.3 0 701.7 0 684.2 0C666.7 0 649.3 0 631.8 0C614.3 0 596.7 0 579 0C561.3 0 543.7 0 526.2 0C508.7 0 491.3 0 473.8 0C456.3 0 438.7 0 421 0C403.3 0 385.7 0 368.2 0C350.7 0 333.3 0 315.8 0C298.3 0 280.7 0 263.2 0C245.7 0 228.3 0 210.8 0C193.3 0 175.7 0 158 0C140.3 0 122.7 0 105.2 0C87.7 0 70.3 0 52.8 0C35.3 0 17.7 0 8.8 0L0 0Z" fill="#757575"></path><path d="M0 6L8.8 6.5C17.7 7 35.3 8 52.8 8.3C70.3 8.7 87.7 8.3 105.2 7.5C122.7 6.7 140.3 5.3 158 5.3C175.7 5.3 193.3 6.7 210.8 7C228.3 7.3 245.7 6.7 263.2 6.5C280.7 6.3 298.3 6.7 315.8 6.5C333.3 6.3 350.7 5.7 368.2 5.7C385.7 5.7 403.3 6.3 421 6.8C438.7 7.3 456.3 7.7 473.8 7.8C491.3 8 508.7 8 526.2 8.2C543.7 8.3 561.3 8.7 579 8C596.7 7.3 614.3 5.7 631.8 5C649.3 4.3 666.7 4.7 684.2 4.8C701.7 5 719.3 5 736.8 4.8C754.3 4.7 771.7 4.3 789.2 4.3C806.7 4.3 824.3 4.7 842 5.2C859.7 5.7 877.3 6.3 894.8 7C912.3 7.7 929.7 8.3 947.2 8.2C964.7 8 982.3 7 991.2 6.5L1000 6L1000 0L991.2 0C982.3 0 964.7 0 947.2 0C929.7 0 912.3 0 894.8 0C877.3 0 859.7 0 842 0C824.3 0 806.7 0 789.2 0C771.7 0 754.3 0 736.8 0C719.3 0 701.7 0 684.2 0C666.7 0 649.3 0 631.8 0C614.3 0 596.7 0 579 0C561.3 0 543.7 0 526.2 0C508.7 0 491.3 0 473.8 0C456.3 0 438.7 0 421 0C403.3 0 385.7 0 368.2 0C350.7 0 333.3 0 315.8 0C298.3 0 280.7 0 263.2 0C245.7 0 228.3 0 210.8 0C193.3 0 175.7 0 158 0C140.3 0 122.7 0 105.2 0C87.7 0 70.3 0 52.8 0C35.3 0 17.7 0 8.8 0L0 0Z" fill="#a5a5a5"></path><path d="M0 1L8.8 1.2C17.7 1.3 35.3 1.7 52.8 1.8C70.3 2 87.7 2 105.2 2.3C122.7 2.7 140.3 3.3 158 3.3C175.7 3.3 193.3 2.7 210.8 2.3C228.3 2 245.7 2 263.2 2.3C280.7 2.7 298.3 3.3 315.8 3.7C333.3 4 350.7 4 368.2 3.7C385.7 3.3 403.3 2.7 421 2.8C438.7 3 456.3 4 473.8 4C491.3 4 508.7 3 526.2 2.3C543.7 1.7 561.3 1.3 579 1.2C596.7 1 614.3 1 631.8 1.7C649.3 2.3 666.7 3.7 684.2 3.8C701.7 4 719.3 3 736.8 2.7C754.3 2.3 771.7 2.7 789.2 2.7C806.7 2.7 824.3 2.3 842 2.3C859.7 2.3 877.3 2.7 894.8 2.8C912.3 3 929.7 3 947.2 3.2C964.7 3.3 982.3 3.7 991.2 3.8L1000 4L1000 0L991.2 0C982.3 0 964.7 0 947.2 0C929.7 0 912.3 0 894.8 0C877.3 0 859.7 0 842 0C824.3 0 806.7 0 789.2 0C771.7 0 754.3 0 736.8 0C719.3 0 701.7 0 684.2 0C666.7 0 649.3 0 631.8 0C614.3 0 596.7 0 579 0C561.3 0 543.7 0 526.2 0C508.7 0 491.3 0 473.8 0C456.3 0 438.7 0 421 0C403.3 0 385.7 0 368.2 0C350.7 0 333.3 0 315.8 0C298.3 0 280.7 0 263.2 0C245.7 0 228.3 0 210.8 0C193.3 0 175.7 0 158 0C140.3 0 122.7 0 105.2 0C87.7 0 70.3 0 52.8 0C35.3 0 17.7 0 8.8 0L0 0Z" fill="#d8d8d8"></path></svg>